<mxfile host="app.diagrams.net" modified="2020-08-20T08:12:05.121Z" agent="5.0 (Macintosh; Intel Mac OS X 10_15_6) AppleWebKit/537.36 (KHTML, like Gecko) Chrome/84.0.4147.125 Safari/537.36" etag="N03wnLGMsM2AV-K-8Imx" version="13.6.3" type="github">
  <diagram id="C5RBs43oDa-KdzZeNtuy" name="Page-1">
    <mxGraphModel dx="1106" dy="650" grid="1" gridSize="10" guides="1" tooltips="1" connect="1" arrows="1" fold="1" page="1" pageScale="1" pageWidth="827" pageHeight="1169" math="0" shadow="0">
      <root>
        <mxCell id="WIyWlLk6GJQsqaUBKTNV-0" />
        <mxCell id="WIyWlLk6GJQsqaUBKTNV-1" parent="WIyWlLk6GJQsqaUBKTNV-0" />
        <mxCell id="8e34_qeQLZp-JGHtPlMC-2" style="edgeStyle=orthogonalEdgeStyle;rounded=0;orthogonalLoop=1;jettySize=auto;html=1;exitX=0.25;exitY=1;exitDx=0;exitDy=0;entryX=0.5;entryY=0;entryDx=0;entryDy=0;" edge="1" parent="WIyWlLk6GJQsqaUBKTNV-1" source="WIyWlLk6GJQsqaUBKTNV-3" target="8e34_qeQLZp-JGHtPlMC-1">
          <mxGeometry relative="1" as="geometry" />
        </mxCell>
        <mxCell id="8e34_qeQLZp-JGHtPlMC-3" style="edgeStyle=orthogonalEdgeStyle;rounded=0;orthogonalLoop=1;jettySize=auto;html=1;exitX=0.75;exitY=1;exitDx=0;exitDy=0;entryX=0.5;entryY=0;entryDx=0;entryDy=0;" edge="1" parent="WIyWlLk6GJQsqaUBKTNV-1" source="WIyWlLk6GJQsqaUBKTNV-3" target="WIyWlLk6GJQsqaUBKTNV-7">
          <mxGeometry relative="1" as="geometry" />
        </mxCell>
        <mxCell id="WIyWlLk6GJQsqaUBKTNV-3" value="ajax" style="rounded=1;whiteSpace=wrap;html=1;fontSize=12;glass=0;strokeWidth=1;shadow=0;" parent="WIyWlLk6GJQsqaUBKTNV-1" vertex="1">
          <mxGeometry x="120" y="50" width="120" height="40" as="geometry" />
        </mxCell>
        <mxCell id="8e34_qeQLZp-JGHtPlMC-9" style="edgeStyle=orthogonalEdgeStyle;rounded=0;orthogonalLoop=1;jettySize=auto;html=1;exitX=0.5;exitY=1;exitDx=0;exitDy=0;entryX=0.5;entryY=0;entryDx=0;entryDy=0;" edge="1" parent="WIyWlLk6GJQsqaUBKTNV-1" source="WIyWlLk6GJQsqaUBKTNV-7" target="WIyWlLk6GJQsqaUBKTNV-10">
          <mxGeometry relative="1" as="geometry">
            <mxPoint x="190" y="280" as="targetPoint" />
            <Array as="points">
              <mxPoint x="280" y="200" />
              <mxPoint x="190" y="200" />
            </Array>
          </mxGeometry>
        </mxCell>
        <mxCell id="WIyWlLk6GJQsqaUBKTNV-7" value="vco-api: api集群" style="rounded=1;whiteSpace=wrap;html=1;fontSize=12;glass=0;strokeWidth=1;shadow=0;" parent="WIyWlLk6GJQsqaUBKTNV-1" vertex="1">
          <mxGeometry x="220" y="140" width="120" height="40" as="geometry" />
        </mxCell>
        <mxCell id="8e34_qeQLZp-JGHtPlMC-16" style="edgeStyle=orthogonalEdgeStyle;rounded=0;orthogonalLoop=1;jettySize=auto;html=1;entryX=0.5;entryY=0;entryDx=0;entryDy=0;" edge="1" parent="WIyWlLk6GJQsqaUBKTNV-1" source="WIyWlLk6GJQsqaUBKTNV-10" target="8e34_qeQLZp-JGHtPlMC-14">
          <mxGeometry relative="1" as="geometry" />
        </mxCell>
        <mxCell id="8e34_qeQLZp-JGHtPlMC-33" style="edgeStyle=orthogonalEdgeStyle;rounded=0;orthogonalLoop=1;jettySize=auto;html=1;exitX=0.5;exitY=1;exitDx=0;exitDy=0;" edge="1" parent="WIyWlLk6GJQsqaUBKTNV-1" source="WIyWlLk6GJQsqaUBKTNV-10" target="8e34_qeQLZp-JGHtPlMC-30">
          <mxGeometry relative="1" as="geometry" />
        </mxCell>
        <mxCell id="WIyWlLk6GJQsqaUBKTNV-10" value="Kani校验" style="rhombus;whiteSpace=wrap;html=1;shadow=0;fontFamily=Helvetica;fontSize=12;align=center;strokeWidth=1;spacing=6;spacingTop=-4;" parent="WIyWlLk6GJQsqaUBKTNV-1" vertex="1">
          <mxGeometry x="140" y="350" width="100" height="80" as="geometry" />
        </mxCell>
        <mxCell id="8e34_qeQLZp-JGHtPlMC-4" style="edgeStyle=orthogonalEdgeStyle;rounded=0;orthogonalLoop=1;jettySize=auto;html=1;exitX=0.5;exitY=1;exitDx=0;exitDy=0;entryX=0.5;entryY=0;entryDx=0;entryDy=0;" edge="1" parent="WIyWlLk6GJQsqaUBKTNV-1" source="8e34_qeQLZp-JGHtPlMC-1" target="WIyWlLk6GJQsqaUBKTNV-10">
          <mxGeometry relative="1" as="geometry">
            <Array as="points">
              <mxPoint x="100" y="200" />
              <mxPoint x="190" y="200" />
            </Array>
          </mxGeometry>
        </mxCell>
        <mxCell id="8e34_qeQLZp-JGHtPlMC-1" value="vco: default集群" style="rounded=1;whiteSpace=wrap;html=1;fontSize=12;glass=0;strokeWidth=1;shadow=0;" vertex="1" parent="WIyWlLk6GJQsqaUBKTNV-1">
          <mxGeometry x="40" y="140" width="120" height="40" as="geometry" />
        </mxCell>
        <mxCell id="8e34_qeQLZp-JGHtPlMC-6" style="edgeStyle=orthogonalEdgeStyle;rounded=0;orthogonalLoop=1;jettySize=auto;html=1;exitX=0.5;exitY=1;exitDx=0;exitDy=0;" edge="1" parent="WIyWlLk6GJQsqaUBKTNV-1" source="WIyWlLk6GJQsqaUBKTNV-10" target="WIyWlLk6GJQsqaUBKTNV-10">
          <mxGeometry relative="1" as="geometry" />
        </mxCell>
        <mxCell id="8e34_qeQLZp-JGHtPlMC-8" value="result" style="rounded=1;whiteSpace=wrap;html=1;" vertex="1" parent="WIyWlLk6GJQsqaUBKTNV-1">
          <mxGeometry x="140" y="730" width="120" height="40" as="geometry" />
        </mxCell>
        <mxCell id="8e34_qeQLZp-JGHtPlMC-12" value="否" style="text;html=1;align=center;verticalAlign=middle;resizable=0;points=[];autosize=1;" vertex="1" parent="WIyWlLk6GJQsqaUBKTNV-1">
          <mxGeometry x="320" y="370" width="30" height="20" as="geometry" />
        </mxCell>
        <mxCell id="8e34_qeQLZp-JGHtPlMC-17" style="edgeStyle=orthogonalEdgeStyle;rounded=0;orthogonalLoop=1;jettySize=auto;html=1;entryX=1;entryY=0.5;entryDx=0;entryDy=0;" edge="1" parent="WIyWlLk6GJQsqaUBKTNV-1" source="8e34_qeQLZp-JGHtPlMC-14" target="8e34_qeQLZp-JGHtPlMC-8">
          <mxGeometry relative="1" as="geometry">
            <mxPoint x="340" y="530" as="targetPoint" />
            <Array as="points">
              <mxPoint x="480" y="750" />
            </Array>
          </mxGeometry>
        </mxCell>
        <mxCell id="8e34_qeQLZp-JGHtPlMC-14" value="throw new Error" style="rounded=1;whiteSpace=wrap;html=1;" vertex="1" parent="WIyWlLk6GJQsqaUBKTNV-1">
          <mxGeometry x="440" y="540" width="80" height="40" as="geometry" />
        </mxCell>
        <mxCell id="8e34_qeQLZp-JGHtPlMC-27" style="edgeStyle=orthogonalEdgeStyle;rounded=0;orthogonalLoop=1;jettySize=auto;html=1;" edge="1" parent="WIyWlLk6GJQsqaUBKTNV-1" source="8e34_qeQLZp-JGHtPlMC-22" target="8e34_qeQLZp-JGHtPlMC-8">
          <mxGeometry relative="1" as="geometry">
            <Array as="points">
              <mxPoint x="110" y="690" />
              <mxPoint x="200" y="690" />
            </Array>
          </mxGeometry>
        </mxCell>
        <mxCell id="8e34_qeQLZp-JGHtPlMC-22" value="platformDB" style="shape=cylinder2;whiteSpace=wrap;html=1;boundedLbl=1;backgroundOutline=1;size=15;" vertex="1" parent="WIyWlLk6GJQsqaUBKTNV-1">
          <mxGeometry x="80" y="570" width="60" height="80" as="geometry" />
        </mxCell>
        <mxCell id="8e34_qeQLZp-JGHtPlMC-28" style="edgeStyle=orthogonalEdgeStyle;rounded=0;orthogonalLoop=1;jettySize=auto;html=1;" edge="1" parent="WIyWlLk6GJQsqaUBKTNV-1" source="8e34_qeQLZp-JGHtPlMC-24" target="8e34_qeQLZp-JGHtPlMC-8">
          <mxGeometry relative="1" as="geometry">
            <Array as="points">
              <mxPoint x="280" y="690" />
              <mxPoint x="200" y="690" />
            </Array>
          </mxGeometry>
        </mxCell>
        <mxCell id="8e34_qeQLZp-JGHtPlMC-24" value="RPC" style="shape=cylinder2;whiteSpace=wrap;html=1;boundedLbl=1;backgroundOutline=1;size=15;" vertex="1" parent="WIyWlLk6GJQsqaUBKTNV-1">
          <mxGeometry x="250" y="570" width="60" height="80" as="geometry" />
        </mxCell>
        <mxCell id="8e34_qeQLZp-JGHtPlMC-31" style="edgeStyle=orthogonalEdgeStyle;rounded=0;orthogonalLoop=1;jettySize=auto;html=1;entryX=0.5;entryY=0;entryDx=0;entryDy=0;" edge="1" parent="WIyWlLk6GJQsqaUBKTNV-1" source="8e34_qeQLZp-JGHtPlMC-30" target="8e34_qeQLZp-JGHtPlMC-14">
          <mxGeometry relative="1" as="geometry" />
        </mxCell>
        <mxCell id="8e34_qeQLZp-JGHtPlMC-35" style="edgeStyle=orthogonalEdgeStyle;rounded=0;orthogonalLoop=1;jettySize=auto;html=1;" edge="1" parent="WIyWlLk6GJQsqaUBKTNV-1" source="8e34_qeQLZp-JGHtPlMC-30" target="8e34_qeQLZp-JGHtPlMC-22">
          <mxGeometry relative="1" as="geometry" />
        </mxCell>
        <mxCell id="8e34_qeQLZp-JGHtPlMC-36" style="edgeStyle=orthogonalEdgeStyle;rounded=0;orthogonalLoop=1;jettySize=auto;html=1;exitX=0.5;exitY=1;exitDx=0;exitDy=0;" edge="1" parent="WIyWlLk6GJQsqaUBKTNV-1" source="8e34_qeQLZp-JGHtPlMC-30" target="8e34_qeQLZp-JGHtPlMC-24">
          <mxGeometry relative="1" as="geometry" />
        </mxCell>
        <mxCell id="8e34_qeQLZp-JGHtPlMC-30" value="参数校验" style="rounded=1;whiteSpace=wrap;html=1;" vertex="1" parent="WIyWlLk6GJQsqaUBKTNV-1">
          <mxGeometry x="140" y="470" width="100" height="40" as="geometry" />
        </mxCell>
        <mxCell id="8e34_qeQLZp-JGHtPlMC-32" value="否" style="text;html=1;align=center;verticalAlign=middle;resizable=0;points=[];autosize=1;" vertex="1" parent="WIyWlLk6GJQsqaUBKTNV-1">
          <mxGeometry x="320" y="470" width="30" height="20" as="geometry" />
        </mxCell>
        <mxCell id="8e34_qeQLZp-JGHtPlMC-38" value="是" style="text;html=1;align=center;verticalAlign=middle;resizable=0;points=[];autosize=1;" vertex="1" parent="WIyWlLk6GJQsqaUBKTNV-1">
          <mxGeometry x="190" y="520" width="30" height="20" as="geometry" />
        </mxCell>
        <mxCell id="8e34_qeQLZp-JGHtPlMC-39" value="是" style="text;html=1;align=center;verticalAlign=middle;resizable=0;points=[];autosize=1;" vertex="1" parent="WIyWlLk6GJQsqaUBKTNV-1">
          <mxGeometry x="190" y="440" width="30" height="20" as="geometry" />
        </mxCell>
        <mxCell id="8e34_qeQLZp-JGHtPlMC-42" style="edgeStyle=orthogonalEdgeStyle;rounded=0;orthogonalLoop=1;jettySize=auto;html=1;" edge="1" parent="WIyWlLk6GJQsqaUBKTNV-1" source="8e34_qeQLZp-JGHtPlMC-41" target="8e34_qeQLZp-JGHtPlMC-14">
          <mxGeometry relative="1" as="geometry" />
        </mxCell>
        <mxCell id="8e34_qeQLZp-JGHtPlMC-41" value="登录" style="rhombus;whiteSpace=wrap;html=1;shadow=0;fontFamily=Helvetica;fontSize=12;align=center;strokeWidth=1;spacing=6;spacingTop=-4;" vertex="1" parent="WIyWlLk6GJQsqaUBKTNV-1">
          <mxGeometry x="140" y="230" width="100" height="80" as="geometry" />
        </mxCell>
        <mxCell id="8e34_qeQLZp-JGHtPlMC-43" value="否" style="text;html=1;align=center;verticalAlign=middle;resizable=0;points=[];autosize=1;" vertex="1" parent="WIyWlLk6GJQsqaUBKTNV-1">
          <mxGeometry x="320" y="250" width="30" height="20" as="geometry" />
        </mxCell>
        <mxCell id="8e34_qeQLZp-JGHtPlMC-44" value="是" style="text;html=1;align=center;verticalAlign=middle;resizable=0;points=[];autosize=1;" vertex="1" parent="WIyWlLk6GJQsqaUBKTNV-1">
          <mxGeometry x="190" y="320" width="30" height="20" as="geometry" />
        </mxCell>
      </root>
    </mxGraphModel>
  </diagram>
</mxfile>
